# xmcd
#
# Track frame offsets:
#	150
#	2785
#	7163
#	13885
#	19028
#	24023
#	37908
#	44890
#	57945
#	59290
#	67685
#	72235
#	77308
#	86140
#	93635
#	101955
#	104923
#	107298
#	111753
#	116318
#	124690
#	130208
#	132875
#	140685
#	148465
#	159065
#	169770
#	173483
#	180560
#	184830
#	191375
#	193735
#	201095
#	210565
#	220065
#	227465
#	236190
#
# Disc length: 3226 seconds
#
# Revision: 1
# Processed by: cddbd v1.5.1PL0 Copyright (c) Steve Scherf et al.
# Submitted via: CDex 1.50Beta5
#
DISCID=020c9825
DTITLE=Various Artist - ラジオ・デイズ 懐かしのラジオ番組オープニング集1
DYEAR=1900
DGENRE=Soundtrack
TTITLE0=(Nhk S21)/のど自慢素人音楽会
TTITLE1=(Nhk S21)/英語会話
TTITLE2=(Nhk S21)/話の泉
TTITLE3=(Nhk S22)/鐘の鳴る丘
TTITLE4=(Nhk S22)/日曜娯楽版
TTITLE5=(S22 Nhk)/二十の扉
TTITLE6=(S24 Nhk)/とんち教室
TTITLE7=(S22 Nhk)/えり子とともに
TTITLE8=(S25 Nhk)/三太物語
TTITLE9=(S25 Nhk)/ラジオ喫煙室
TTITLE10=(S26 Nhk)/さくらんぼ大将
TTITLE11=(S26 Cbc,Mbs)/冗談ウエスターン
TTITLE12=(S26 Nhk)/三つの歌
TTITLE13=(S26 ラジオ東京)/チャッカリ夫人とウッカリ夫人
TTITLE14=(S26 ラジオ東京)/ちえのわクラブ
TTITLE15=(S27 民放各局）/ルーテル ・アワー
TTITLE16=（S27 文化放送）/大学受験ラジオ講座
TTITLE17=S２７　ラジオ東京/イングリッシュ・アワー
TTITLE18=S２７　文化放送/S盤アワー
TTITLE19=S２７　ラジオ東京/ぴよぴよ大学
TTITLE20=S２７　Nhk/君の名は
TTITLE21=S２７　Nhk/黄金のいす
TTITLE22=S２７　ニッポン放送/電報クイズ
TTITLE23=S２７　ラジオ神戸（旧ラジオ関西　現Am Kobe)/Cr電話リクエスト
TTITLE24=S２８　新日本放送（現毎日放送）、ニッポン放送/金の歌・銀の歌
TTITLE25=S２８　Nhk/新諸国物語 笛吹童子
TTITLE26=S２８　Nhk/お姉さんといっしょ
TTITLE27=S２８　文化放送/素人ジャスのど自慢
TTITLE28=S２９　Nhk/新諸国物語 紅孔雀
TTITLE29=S２９　Nhk/ヤン坊、ニン坊、トン坊
TTITLE30=S２９　ニッポン放送他/心のともしび
TTITLE31=S２９　ラジオ東京/L盤アワー
TTITLE32=S２９　ラジオ東京/浪曲天狗道場
TTITLE33=S２９　Nhk/お父さんはお人好し
TTITLE34=S３０　ラジオ東京/しろうと寄席
TTITLE35=S３０　ニッポン放送/ものまねノド自慢
TTITLE36=S３０　ニッポン放送/しりとり歌合戦
EXTD=
EXTT0=
EXTT1=
EXTT2=
EXTT3=
EXTT4=
EXTT5=
EXTT6=
EXTT7=
EXTT8=
EXTT9=
EXTT10=
EXTT11=
EXTT12=
EXTT13=
EXTT14=
EXTT15=
EXTT16=
EXTT17=
EXTT18=
EXTT19=
EXTT20=
EXTT21=
EXTT22=
EXTT23=
EXTT24=
EXTT25=
EXTT26=
EXTT27=
EXTT28=
EXTT29=
EXTT30=
EXTT31=
EXTT32=
EXTT33=
EXTT34=
EXTT35=
EXTT36=
PLAYORDER=
